Coordinates
version=1
nRows=16
nColumns=36
inDegrees=yes

Units are S.I. units (second, meters, Newtons, ...)
If the header above contains a line with 'inDegrees', this indicates whether rotational values are in degrees (yes) or radians (no).

endheader
time	pelvis_tilt	pelvis_list	pelvis_rotation	pelvis_tx	pelvis_ty	pelvis_tz	hip_flexion_r	hip_adduction_r	hip_rotation_r	knee_angle_r	knee_angle_r_beta	ankle_angle_r	subtalar_angle_r	mtp_angle_r	hip_flexion_l	hip_adduction_l	hip_rotation_l	knee_angle_l	knee_angle_l_beta	ankle_angle_l	subtalar_angle_l	mtp_angle_l	lumbar_extension	lumbar_bending	lumbar_rotation	arm_flex_r	arm_add_r	arm_rot_r	elbow_flex_r	pro_sup_r	arm_flex_l	arm_add_l	arm_rot_l	elbow_flex_l	pro_sup_l
      0.90000000	      4.57963660	      4.29207999	      5.03504419	      1.09096345	      0.89646044	     -0.18750677	     23.59399579	     -5.23479224	     -4.20273526	     18.97979842	      0.33125997	      0.18491590	    -20.68471119	     -7.40598605	    -14.64080054	      6.31538078	     -1.41144407	      9.97687276	      0.17412928	     16.50235708	      8.34478605	     -7.40598605	    -15.01411201	     -2.87838921	     -8.20911259	     -1.52088985	     -4.29556389	     -3.07806166	     16.98465151	     92.85673963	     17.99411947	     -8.30405652	     -0.22078270	     47.36395603	     97.50532224
      0.91000000	      4.54906747	      4.45821578	      5.13000858	      1.10466681	      0.89396333	     -0.18672662	     23.25832093	     -5.36404845	     -4.49568399	     14.88252451	      0.25974905	      0.93351344	    -19.18591647	     -7.40832929	    -15.73369494	      6.27599361	     -1.73121428	      9.73593550	      0.16992413	     16.95727850	      8.99261404	     -7.40832929	    -14.98579905	     -3.06467551	     -8.38455956	     -1.75042799	     -4.24362966	     -3.27428287	     16.58688098	     92.64257639	     18.87496150	     -8.45956476	      0.31675630	     48.41675825	     97.70348636
      0.92000000	      4.32009743	      4.59973657	      5.23838187	      1.11850329	      0.89107939	     -0.18591104	     23.26091129	     -5.51007669	     -4.85889497	     11.44792196	      0.19980393	      2.55865213	    -16.23600761	     -7.41388440	    -16.42479839	      6.18004133	     -2.20403047	      9.88734462	      0.17256672	     17.53333796	     10.09905352	     -7.41388440	    -14.68276511	     -3.24697402	     -8.54397793	     -2.03150649	     -4.19061220	     -3.44877325	     16.26341988	     92.20070368	     19.70018093	     -8.55508742	      0.78165111	     49.22181601	     97.92226603
      0.93000000	      4.07282278	      4.68403805	      5.33009190	      1.13232848	      0.88813238	     -0.18503929	     23.26653299	     -5.51219096	     -4.46111108	      8.42488801	      0.14704203	      3.47243734	    -14.17635842	     -7.41621574	    -16.98039421	      6.06011495	     -2.34629121	     10.26215160	      0.17910833	     17.93074478	     10.22885799	     -7.41621574	    -14.38442445	     -3.33700535	     -8.66040084	     -2.23109990	     -4.18231606	     -3.51873492	     15.81473786	     92.00482739	     20.43440506	     -8.56970104	      1.11405880	     50.05436285	     98.07440102
      0.94000000	      3.90365940	      4.72011154	      5.48671205	      1.14638158	      0.88533026	     -0.18422292	     23.35957001	     -5.55566223	     -4.42554293	      6.38224526	      0.11139119	      5.32720381	    -10.59953630	     -7.42064434	    -17.47649304	      5.81081942	     -2.61120521	     10.92207556	      0.19062618	     18.33855217	     10.83740076	     -7.42064434	    -14.14862188	     -3.35270940	     -8.82434895	     -2.40787605	     -4.17817323	     -3.46885881	     15.33100848	     91.65489245	     21.10819583	     -8.57969492	      1.46102870	     50.81248257	     98.25526620
      0.95000000	      3.62242734	      4.74821394	      5.63206656	      1.16048835	      0.88248268	     -0.18331852	     23.56236651	     -5.50915906	     -3.25073193	      4.90645927	      0.08563387	      5.81944459	     -9.29030357	     -7.42130570	    -17.72365067	      5.59533401	     -2.51339006	     11.82496522	      0.20638458	     18.44107603	     10.71260764	     -7.42130570	    -13.77327447	     -3.36731956	     -8.91974965	     -2.65637345	     -4.17855320	     -3.49649332	     15.00781415	     91.58141771	     21.72833151	     -8.45022352	      1.60139708	     51.39708279	     98.33745932
      0.96000000	      3.56129140	      4.65865138	      5.77536020	      1.17476826	      0.88002677	     -0.18242031	     23.64991215	     -5.33614991	     -1.97513759	      4.36011069	      0.07609829	      6.33238354	     -8.03232770	     -7.42181334	    -18.10313235	      5.21098609	     -2.40334392	     12.92012619	      0.22549874	     18.47344393	     10.60641022	     -7.42181334	    -13.66450990	     -3.17171470	     -9.04798775	     -2.78036483	     -4.21844236	     -3.53906693	     14.66405315	     91.50895318	     22.27477081	     -8.34719151	      1.76818040	     51.95047297	     98.41762787
      0.97000000	      3.53322082	      4.57319785	      6.01763862	      1.18970600	      0.87771397	     -0.18161681	     23.91390772	     -5.31528548	     -2.05175086	      4.97235806	      0.08678402	      8.98030582	     -3.42749800	     -7.42587764	    -18.36579216	      4.68386927	     -3.01514770	     14.33365451	      0.25016947	     18.90558395	     11.21199324	     -7.42587764	    -13.46131127	     -2.99883887	     -9.38853050	     -2.78886978	     -4.19560376	     -3.41941261	     13.95188029	     91.04176459	     22.46042574	     -8.40764384	      2.08186584	     52.73615321	     98.61992231
      0.98000000	      3.67101785	      4.42460324	      6.24591903	      1.20470701	      0.87583663	     -0.18067763	     23.79785055	     -5.04581415	     -0.90973238	      5.68920278	      0.09929532	      9.14443378	     -2.75365731	     -7.42686549	    -18.75737365	      4.12342753	     -2.98155893	     15.81622932	      0.27604528	     18.66473997	     10.89182265	     -7.42686549	    -13.47936238	     -2.71156293	     -9.49672992	     -2.98630366	     -4.23080617	     -3.39375298	     13.68856887	     90.91244040	     22.79705082	     -8.19087375	      2.15840078	     53.18900308	     98.69755937
      0.99000000	      3.74135241	      4.23774078	      6.49211826	      1.22007983	      0.87403059	     -0.17971780	     23.82810866	     -4.72369052	     -0.07971785	      7.00512807	      0.12226255	      9.09397517	     -2.30101958	     -7.42817489	    -18.97161631	      3.51159772	     -2.94793835	     17.48152813	      0.30511022	     18.23769067	     10.60306950	     -7.42817489	    -13.35314194	     -2.36526407	     -9.66715448	     -3.13952092	     -4.26136101	     -3.39079107	     13.32127134	     90.71234849	     22.86894815	     -8.04695588	      2.28802947	     53.72034003	     98.80617166
      1.00000000	      3.88671029	      4.05225964	      6.75922651	      1.23576152	      0.87255641	     -0.17868191	     23.70925218	     -4.36251778	      0.46681781	      8.51241742	      0.14856971	      8.47250438	     -2.32592952	     -7.42925064	    -19.15362377	      2.87299847	     -2.86580419	     19.33830383	      0.33751707	     17.53444419	     10.22739321	     -7.42925064	    -13.28712260	     -2.01448322	     -9.80081435	     -3.32496753	     -4.27468789	     -3.38963541	     12.98961590	     90.53070055	     22.82135389	     -7.84833871	      2.38527206	     54.22060603	     98.90871511
      1.01000000	      4.04171895	      3.85358947	      7.00713810	      1.25165045	      0.87132857	     -0.17761253	     23.50953535	     -3.95662009	      0.74421489	     10.03392992	      0.17512511	      7.34517877	     -2.77636404	     -7.43012229	    -19.21309664	      2.23956385	     -2.79222339	     21.39748033	      0.37345648	     16.51188302	      9.70380173	     -7.43012229	    -13.20093619	     -1.64051706	     -9.88032153	     -3.50880641	     -4.29154138	     -3.39820538	     12.68588762	     90.36992131	     22.64624304	     -7.63548041	      2.46305615	     54.69991452	     99.00685930
      1.02000000	      3.92484273	      3.66454073	      7.17667443	      1.26769911	      0.87006963	     -0.17629606	     23.45771814	     -3.43640575	      1.57981860	     11.29148541	      0.19707360	      4.78441142	     -5.37047995	     -7.43317757	    -18.83090239	      1.74835965	     -2.51093700	     23.64883823	      0.41275009	     14.87310060	      8.25953777	     -7.43317757	    -12.76400616	     -1.33473841	    -10.07604913	     -3.59124663	     -4.30681035	     -3.27881170	     12.27337422	     89.85233852	     22.08065884	     -7.49983405	      2.20739960	     55.40328724	     99.23697429
      1.03000000	      4.09881418	      3.34681937	      7.30959027	      1.28393309	      0.86949526	     -0.17502432	     23.10839273	     -2.83349787	      1.38612782	     12.63307515	      0.22048876	      2.95877648	     -6.55839282	     -7.43453883	    -18.57252874	      1.02281095	     -2.74688811	     26.13682635	      0.45617368	     12.93918247	      7.32771698	     -7.43453883	    -12.63289114	     -0.82005534	    -10.01461663	     -3.74342185	     -4.39041271	     -3.21702907	     12.03482763	     89.62743767	     21.63763150	     -7.22125977	      2.24373632	     55.74930409	     99.36677564
      1.04000000	      4.29547016	      3.08868155	      7.38150819	      1.30009543	      0.86931396	     -0.17359079	     22.69255389	     -2.26109400	      1.19772990	     13.93357085	      0.24318669	      1.48534930	     -7.79763438	     -7.43541969	    -18.11660249	      0.37433643	     -3.05062217	     28.91578189	      0.50467560	     10.69404128	      6.26025138	     -7.43541969	    -12.56853175	     -0.39801680	     -9.82760458	     -3.88125676	     -4.43363207	     -3.20250546	     11.78689591	     89.47118684	     21.15113853	     -6.92231909	      2.18768391	     56.08652937	     99.46899263
      1.05000000	      4.32925156	      2.68763623	      7.29073981	      1.31623485	      0.86926993	     -0.17197711	     22.48197796	     -1.45994853	      1.37938060	     15.29715879	      0.26698579	     -0.14901321	     -9.71145738	     -7.43660008	    -17.31222643	     -0.31467546	     -3.47128208	     31.83329831	      0.55559587	      7.56296649	      4.49536344	     -7.43660008	    -12.29226489	      0.16912312	     -9.62381983	     -3.90799668	     -4.54378089	     -3.18199796	     11.53791431	     89.26541876	     20.43003739	     -6.63918493	      1.95057334	     56.39228164	     99.60349821
